<?xml version="1.0" encoding="utf-8" standalone="no"?>
<!DOCTYPE svg PUBLIC "-//W3C//DTD SVG 1.1//EN"
  "http://www.w3.org/Graphics/SVG/1.1/DTD/svg11.dtd">
<!-- Created with matplotlib (http://matplotlib.org/) -->
<svg height="318pt" version="1.1" viewBox="0 0 422 318" width="422pt" xmlns="http://www.w3.org/2000/svg" xmlns:xlink="http://www.w3.org/1999/xlink">
 <defs>
  <style type="text/css">
*{stroke-linecap:butt;stroke-linejoin:round;}
  </style>
 </defs>
 <g id="figure_1">
  <g id="patch_1">
   <path d="M 0 318 
L 422 318 
L 422 0 
L 0 0 
z
" style="fill:#ffffff;"/>
  </g>
  <g id="axes_1">
   <g id="patch_2">
    <path d="M 44.203125 276.84375 
L 407.7 276.84375 
L 407.7 25.918125 
L 44.203125 25.918125 
z
" style="fill:#ffffff;"/>
   </g>
   <g id="PathCollection_1">
    <defs>
     <path d="M 0 3 
C 0.795609 3 1.55874 2.683901 2.12132 2.12132 
C 2.683901 1.55874 3 0.795609 3 0 
C 3 -0.795609 2.683901 -1.55874 2.12132 -2.12132 
C 1.55874 -2.683901 0.795609 -3 0 -3 
C -0.795609 -3 -1.55874 -2.683901 -2.12132 -2.12132 
C -2.683901 -1.55874 -3 -0.795609 -3 0 
C -3 0.795609 -2.683901 1.55874 -2.12132 2.12132 
C -1.55874 2.683901 -0.795609 3 0 3 
z
" id="m2c312f282e" style="stroke:#1f77b4;"/>
    </defs>
    <g clip-path="url(#pea2462b33e)">
     <use style="fill:#1f77b4;stroke:#1f77b4;" x="141.95547" xlink:href="#m2c312f282e" y="241.463124"/>
     <use style="fill:#1f77b4;stroke:#1f77b4;" x="255.696098" xlink:href="#m2c312f282e" y="71.542472"/>
     <use style="fill:#1f77b4;stroke:#1f77b4;" x="258.660992" xlink:href="#m2c312f282e" y="93.030827"/>
     <use style="fill:#1f77b4;stroke:#1f77b4;" x="242.277911" xlink:href="#m2c312f282e" y="247.181883"/>
     <use style="fill:#1f77b4;stroke:#1f77b4;" x="303.951967" xlink:href="#m2c312f282e" y="77.29251"/>
     <use style="fill:#1f77b4;stroke:#1f77b4;" x="366.347212" xlink:href="#m2c312f282e" y="46.457086"/>
     <use style="fill:#1f77b4;stroke:#1f77b4;" x="369.364986" xlink:href="#m2c312f282e" y="53.78669"/>
     <use style="fill:#1f77b4;stroke:#1f77b4;" x="357.238406" xlink:href="#m2c312f282e" y="75.650387"/>
     <use style="fill:#1f77b4;stroke:#1f77b4;" x="164.361309" xlink:href="#m2c312f282e" y="135.981471"/>
     <use style="fill:#1f77b4;stroke:#1f77b4;" x="364.974627" xlink:href="#m2c312f282e" y="55.809368"/>
     <use style="fill:#1f77b4;stroke:#1f77b4;" x="166.585167" xlink:href="#m2c312f282e" y="174.214269"/>
     <use style="fill:#1f77b4;stroke:#1f77b4;" x="227.974754" xlink:href="#m2c312f282e" y="128.203542"/>
     <use style="fill:#1f77b4;stroke:#1f77b4;" x="269.953869" xlink:href="#m2c312f282e" y="79.732236"/>
     <use style="fill:#1f77b4;stroke:#1f77b4;" x="302.911365" xlink:href="#m2c312f282e" y="205.492806"/>
     <use style="fill:#1f77b4;stroke:#1f77b4;" x="282.341132" xlink:href="#m2c312f282e" y="92.566862"/>
     <use style="fill:#1f77b4;stroke:#1f77b4;" x="292.660356" xlink:href="#m2c312f282e" y="89.360812"/>
     <use style="fill:#1f77b4;stroke:#1f77b4;" x="155.939808" xlink:href="#m2c312f282e" y="197.323895"/>
     <use style="fill:#1f77b4;stroke:#1f77b4;" x="90.462078" xlink:href="#m2c312f282e" y="211.477433"/>
     <use style="fill:#1f77b4;stroke:#1f77b4;" x="177.485245" xlink:href="#m2c312f282e" y="158.601066"/>
     <use style="fill:#1f77b4;stroke:#1f77b4;" x="188.518137" xlink:href="#m2c312f282e" y="207.046307"/>
     <use style="fill:#1f77b4;stroke:#1f77b4;" x="369.699923" xlink:href="#m2c312f282e" y="49.491104"/>
     <use style="fill:#1f77b4;stroke:#1f77b4;" x="121.663693" xlink:href="#m2c312f282e" y="236.703573"/>
     <use style="fill:#1f77b4;stroke:#1f77b4;" x="177.127406" xlink:href="#m2c312f282e" y="205.894214"/>
     <use style="fill:#1f77b4;stroke:#1f77b4;" x="305.855014" xlink:href="#m2c312f282e" y="60.438592"/>
     <use style="fill:#1f77b4;stroke:#1f77b4;" x="244.366983" xlink:href="#m2c312f282e" y="89.590188"/>
     <use style="fill:#1f77b4;stroke:#1f77b4;" x="266.122517" xlink:href="#m2c312f282e" y="89.96553"/>
     <use style="fill:#1f77b4;stroke:#1f77b4;" x="142.698192" xlink:href="#m2c312f282e" y="130.299204"/>
     <use style="fill:#1f77b4;stroke:#1f77b4;" x="62.895418" xlink:href="#m2c312f282e" y="227.731846"/>
     <use style="fill:#1f77b4;stroke:#1f77b4;" x="224.772525" xlink:href="#m2c312f282e" y="181.543873"/>
     <use style="fill:#1f77b4;stroke:#1f77b4;" x="286.239804" xlink:href="#m2c312f282e" y="59.244794"/>
     <use style="fill:#1f77b4;stroke:#1f77b4;" x="170.949031" xlink:href="#m2c312f282e" y="218.004221"/>
     <use style="fill:#1f77b4;stroke:#1f77b4;" x="312.418472" xlink:href="#m2c312f282e" y="75.061308"/>
     <use style="fill:#1f77b4;stroke:#1f77b4;" x="281.518577" xlink:href="#m2c312f282e" y="61.898257"/>
     <use style="fill:#1f77b4;stroke:#1f77b4;" x="340.485003" xlink:href="#m2c312f282e" y="71.214048"/>
     <use style="fill:#1f77b4;stroke:#1f77b4;" x="367.869701" xlink:href="#m2c312f282e" y="61.590684"/>
     <use style="fill:#1f77b4;stroke:#1f77b4;" x="189.750863" xlink:href="#m2c312f282e" y="184.312024"/>
     <use style="fill:#1f77b4;stroke:#1f77b4;" x="256.625857" xlink:href="#m2c312f282e" y="93.374891"/>
     <use style="fill:#1f77b4;stroke:#1f77b4;" x="264.913268" xlink:href="#m2c312f282e" y="78.991977"/>
     <use style="fill:#1f77b4;stroke:#1f77b4;" x="251.805502" xlink:href="#m2c312f282e" y="98.051032"/>
     <use style="fill:#1f77b4;stroke:#1f77b4;" x="253.443843" xlink:href="#m2c312f282e" y="95.235964"/>
     <use style="fill:#1f77b4;stroke:#1f77b4;" x="300.794146" xlink:href="#m2c312f282e" y="201.056467"/>
     <use style="fill:#1f77b4;stroke:#1f77b4;" x="115.618813" xlink:href="#m2c312f282e" y="167.374696"/>
     <use style="fill:#1f77b4;stroke:#1f77b4;" x="120.292715" xlink:href="#m2c312f282e" y="193.924961"/>
     <use style="fill:#1f77b4;stroke:#1f77b4;" x="364.060957" xlink:href="#m2c312f282e" y="56.476644"/>
     <use style="fill:#1f77b4;stroke:#1f77b4;" x="358.646341" xlink:href="#m2c312f282e" y="49.470251"/>
     <use style="fill:#1f77b4;stroke:#1f77b4;" x="306.021318" xlink:href="#m2c312f282e" y="174.177778"/>
     <use style="fill:#1f77b4;stroke:#1f77b4;" x="125.69816" xlink:href="#m2c312f282e" y="160.034666"/>
     <use style="fill:#1f77b4;stroke:#1f77b4;" x="362.064485" xlink:href="#m2c312f282e" y="55.991826"/>
     <use style="fill:#1f77b4;stroke:#1f77b4;" x="161.413813" xlink:href="#m2c312f282e" y="157.042353"/>
     <use style="fill:#1f77b4;stroke:#1f77b4;" x="352.278647" xlink:href="#m2c312f282e" y="55.590419"/>
     <use style="fill:#1f77b4;stroke:#1f77b4;" x="247.183503" xlink:href="#m2c312f282e" y="103.675956"/>
     <use style="fill:#1f77b4;stroke:#1f77b4;" x="139.858902" xlink:href="#m2c312f282e" y="177.972907"/>
     <use style="fill:#1f77b4;stroke:#1f77b4;" x="109.204424" xlink:href="#m2c312f282e" y="228.117614"/>
     <use style="fill:#1f77b4;stroke:#1f77b4;" x="155.138443" xlink:href="#m2c312f282e" y="152.381851"/>
     <use style="fill:#1f77b4;stroke:#1f77b4;" x="223.295831" xlink:href="#m2c312f282e" y="103.993954"/>
     <use style="fill:#1f77b4;stroke:#1f77b4;" x="375.341936" xlink:href="#m2c312f282e" y="41.38475"/>
     <use style="fill:#1f77b4;stroke:#1f77b4;" x="325.544669" xlink:href="#m2c312f282e" y="87.624853"/>
     <use style="fill:#1f77b4;stroke:#1f77b4;" x="369.459519" xlink:href="#m2c312f282e" y="43.735853"/>
     <use style="fill:#1f77b4;stroke:#1f77b4;" x="200.038093" xlink:href="#m2c312f282e" y="132.665946"/>
     <use style="fill:#1f77b4;stroke:#1f77b4;" x="223.159456" xlink:href="#m2c312f282e" y="101.637638"/>
     <use style="fill:#1f77b4;stroke:#1f77b4;" x="297.888051" xlink:href="#m2c312f282e" y="100.000728"/>
     <use style="fill:#1f77b4;stroke:#1f77b4;" x="237.845699" xlink:href="#m2c312f282e" y="159.528996"/>
     <use style="fill:#1f77b4;stroke:#1f77b4;" x="376.83111" xlink:href="#m2c312f282e" y="58.707846"/>
     <use style="fill:#1f77b4;stroke:#1f77b4;" x="347.495324" xlink:href="#m2c312f282e" y="49.0115"/>
     <use style="fill:#1f77b4;stroke:#1f77b4;" x="354.592891" xlink:href="#m2c312f282e" y="50.048904"/>
     <use style="fill:#1f77b4;stroke:#1f77b4;" x="268.884635" xlink:href="#m2c312f282e" y="91.644145"/>
     <use style="fill:#1f77b4;stroke:#1f77b4;" x="361.05004" xlink:href="#m2c312f282e" y="39.325579"/>
     <use style="fill:#1f77b4;stroke:#1f77b4;" x="238.523428" xlink:href="#m2c312f282e" y="91.810964"/>
     <use style="fill:#1f77b4;stroke:#1f77b4;" x="167.537193" xlink:href="#m2c312f282e" y="187.862138"/>
     <use style="fill:#1f77b4;stroke:#1f77b4;" x="172.887639" xlink:href="#m2c312f282e" y="119.117127"/>
     <use style="fill:#1f77b4;stroke:#1f77b4;" x="341.888505" xlink:href="#m2c312f282e" y="60.073675"/>
     <use style="fill:#1f77b4;stroke:#1f77b4;" x="386.337201" xlink:href="#m2c312f282e" y="65.469223"/>
     <use style="fill:#1f77b4;stroke:#1f77b4;" x="291.351874" xlink:href="#m2c312f282e" y="94.636459"/>
     <use style="fill:#1f77b4;stroke:#1f77b4;" x="171.942792" xlink:href="#m2c312f282e" y="247.906502"/>
     <use style="fill:#1f77b4;stroke:#1f77b4;" x="88.141959" xlink:href="#m2c312f282e" y="231.818908"/>
     <use style="fill:#1f77b4;stroke:#1f77b4;" x="300.291906" xlink:href="#m2c312f282e" y="84.424016"/>
     <use style="fill:#1f77b4;stroke:#1f77b4;" x="146.333059" xlink:href="#m2c312f282e" y="160.060731"/>
     <use style="fill:#1f77b4;stroke:#1f77b4;" x="126.24767" xlink:href="#m2c312f282e" y="218.134548"/>
     <use style="fill:#1f77b4;stroke:#1f77b4;" x="302.316676" xlink:href="#m2c312f282e" y="82.917434"/>
     <use style="fill:#1f77b4;stroke:#1f77b4;" x="146.201062" xlink:href="#m2c312f282e" y="186.001065"/>
     <use style="fill:#1f77b4;stroke:#1f77b4;" x="180.685119" xlink:href="#m2c312f282e" y="135.449736"/>
     <use style="fill:#1f77b4;stroke:#1f77b4;" x="294.267407" xlink:href="#m2c312f282e" y="90.424282"/>
     <use style="fill:#1f77b4;stroke:#1f77b4;" x="299.873274" xlink:href="#m2c312f282e" y="72.731057"/>
     <use style="fill:#1f77b4;stroke:#1f77b4;" x="214.707492" xlink:href="#m2c312f282e" y="121.692393"/>
     <use style="fill:#1f77b4;stroke:#1f77b4;" x="283.633757" xlink:href="#m2c312f282e" y="81.34308"/>
     <use style="fill:#1f77b4;stroke:#1f77b4;" x="227.942436" xlink:href="#m2c312f282e" y="98.95811"/>
     <use style="fill:#1f77b4;stroke:#1f77b4;" x="131.366827" xlink:href="#m2c312f282e" y="250.565178"/>
     <use style="fill:#1f77b4;stroke:#1f77b4;" x="139.948703" xlink:href="#m2c312f282e" y="146.371159"/>
     <use style="fill:#1f77b4;stroke:#1f77b4;" x="242.459107" xlink:href="#m2c312f282e" y="194.138697"/>
     <use style="fill:#1f77b4;stroke:#1f77b4;" x="149.079235" xlink:href="#m2c312f282e" y="137.425497"/>
     <use style="fill:#1f77b4;stroke:#1f77b4;" x="370.524149" xlink:href="#m2c312f282e" y="54.135967"/>
     <use style="fill:#1f77b4;stroke:#1f77b4;" x="346.655504" xlink:href="#m2c312f282e" y="51.831781"/>
     <use style="fill:#1f77b4;stroke:#1f77b4;" x="207.236851" xlink:href="#m2c312f282e" y="89.9134"/>
     <use style="fill:#1f77b4;stroke:#1f77b4;" x="113.452996" xlink:href="#m2c312f282e" y="173.48965"/>
     <use style="fill:#1f77b4;stroke:#1f77b4;" x="187.645402" xlink:href="#m2c312f282e" y="225.662249"/>
     <use style="fill:#1f77b4;stroke:#1f77b4;" x="389.007707" xlink:href="#m2c312f282e" y="51.873486"/>
     <use style="fill:#1f77b4;stroke:#1f77b4;" x="339.043049" xlink:href="#m2c312f282e" y="75.624321"/>
     <use style="fill:#1f77b4;stroke:#1f77b4;" x="203.865617" xlink:href="#m2c312f282e" y="128.573671"/>
     <use style="fill:#1f77b4;stroke:#1f77b4;" x="287.301906" xlink:href="#m2c312f282e" y="76.16127"/>
     <use style="fill:#1f77b4;stroke:#1f77b4;" x="233.500575" xlink:href="#m2c312f282e" y="95.892813"/>
     <use style="fill:#1f77b4;stroke:#1f77b4;" x="269.636975" xlink:href="#m2c312f282e" y="97.618346"/>
     <use style="fill:#1f77b4;stroke:#1f77b4;" x="216.604324" xlink:href="#m2c312f282e" y="96.226451"/>
     <use style="fill:#1f77b4;stroke:#1f77b4;" x="315.652368" xlink:href="#m2c312f282e" y="76.025729"/>
     <use style="fill:#1f77b4;stroke:#1f77b4;" x="333.729332" xlink:href="#m2c312f282e" y="62.810547"/>
     <use style="fill:#1f77b4;stroke:#1f77b4;" x="329.996392" xlink:href="#m2c312f282e" y="59.432465"/>
     <use style="fill:#1f77b4;stroke:#1f77b4;" x="271.818044" xlink:href="#m2c312f282e" y="71.443424"/>
     <use style="fill:#1f77b4;stroke:#1f77b4;" x="293.408377" xlink:href="#m2c312f282e" y="92.118536"/>
     <use style="fill:#1f77b4;stroke:#1f77b4;" x="134.308182" xlink:href="#m2c312f282e" y="228.878726"/>
     <use style="fill:#1f77b4;stroke:#1f77b4;" x="173.099448" xlink:href="#m2c312f282e" y="128.339082"/>
     <use style="fill:#1f77b4;stroke:#1f77b4;" x="337.149387" xlink:href="#m2c312f282e" y="90.549396"/>
     <use style="fill:#1f77b4;stroke:#1f77b4;" x="177.437238" xlink:href="#m2c312f282e" y="141.194561"/>
     <use style="fill:#1f77b4;stroke:#1f77b4;" x="287.156386" xlink:href="#m2c312f282e" y="84.163362"/>
     <use style="fill:#1f77b4;stroke:#1f77b4;" x="134.268224" xlink:href="#m2c312f282e" y="248.031616"/>
     <use style="fill:#1f77b4;stroke:#1f77b4;" x="386.118859" xlink:href="#m2c312f282e" y="53.041218"/>
     <use style="fill:#1f77b4;stroke:#1f77b4;" x="327.841859" xlink:href="#m2c312f282e" y="80.71751"/>
     <use style="fill:#1f77b4;stroke:#1f77b4;" x="348.096618" xlink:href="#m2c312f282e" y="63.707199"/>
     <use style="fill:#1f77b4;stroke:#1f77b4;" x="138.746461" xlink:href="#m2c312f282e" y="218.885233"/>
     <use style="fill:#1f77b4;stroke:#1f77b4;" x="283.740878" xlink:href="#m2c312f282e" y="212.733787"/>
     <use style="fill:#1f77b4;stroke:#1f77b4;" x="355.14424" xlink:href="#m2c312f282e" y="47.989734"/>
     <use style="fill:#1f77b4;stroke:#1f77b4;" x="230.365467" xlink:href="#m2c312f282e" y="92.535584"/>
     <use style="fill:#1f77b4;stroke:#1f77b4;" x="203.779747" xlink:href="#m2c312f282e" y="164.684742"/>
     <use style="fill:#1f77b4;stroke:#1f77b4;" x="238.440077" xlink:href="#m2c312f282e" y="263.436296"/>
     <use style="fill:#1f77b4;stroke:#1f77b4;" x="365.286119" xlink:href="#m2c312f282e" y="48.28688"/>
     <use style="fill:#1f77b4;stroke:#1f77b4;" x="371.724554" xlink:href="#m2c312f282e" y="44.027786"/>
     <use style="fill:#1f77b4;stroke:#1f77b4;" x="233.676964" xlink:href="#m2c312f282e" y="83.428316"/>
     <use style="fill:#1f77b4;stroke:#1f77b4;" x="354.91935" xlink:href="#m2c312f282e" y="61.236194"/>
     <use style="fill:#1f77b4;stroke:#1f77b4;" x="150.002319" xlink:href="#m2c312f282e" y="196.166589"/>
     <use style="fill:#1f77b4;stroke:#1f77b4;" x="270.05605" xlink:href="#m2c312f282e" y="101.814883"/>
     <use style="fill:#1f77b4;stroke:#1f77b4;" x="135.741711" xlink:href="#m2c312f282e" y="165.393722"/>
     <use style="fill:#1f77b4;stroke:#1f77b4;" x="325.543148" xlink:href="#m2c312f282e" y="105.969715"/>
     <use style="fill:#1f77b4;stroke:#1f77b4;" x="266.893464" xlink:href="#m2c312f282e" y="84.575196"/>
     <use style="fill:#1f77b4;stroke:#1f77b4;" x="277.974964" xlink:href="#m2c312f282e" y="95.762486"/>
     <use style="fill:#1f77b4;stroke:#1f77b4;" x="147.028687" xlink:href="#m2c312f282e" y="201.249351"/>
     <use style="fill:#1f77b4;stroke:#1f77b4;" x="364.05371" xlink:href="#m2c312f282e" y="55.892778"/>
     <use style="fill:#1f77b4;stroke:#1f77b4;" x="380.257697" xlink:href="#m2c312f282e" y="62.059863"/>
     <use style="fill:#1f77b4;stroke:#1f77b4;" x="292.250437" xlink:href="#m2c312f282e" y="71.745783"/>
     <use style="fill:#1f77b4;stroke:#1f77b4;" x="296.849522" xlink:href="#m2c312f282e" y="85.4927"/>
     <use style="fill:#1f77b4;stroke:#1f77b4;" x="199.764534" xlink:href="#m2c312f282e" y="82.875729"/>
     <use style="fill:#1f77b4;stroke:#1f77b4;" x="213.259063" xlink:href="#m2c312f282e" y="87.186954"/>
     <use style="fill:#1f77b4;stroke:#1f77b4;" x="195.475975" xlink:href="#m2c312f282e" y="143.092125"/>
     <use style="fill:#1f77b4;stroke:#1f77b4;" x="158.681389" xlink:href="#m2c312f282e" y="248.990825"/>
     <use style="fill:#1f77b4;stroke:#1f77b4;" x="96.011669" xlink:href="#m2c312f282e" y="243.240787"/>
    </g>
   </g>
   <g id="PathCollection_2">
    <defs>
     <path d="M 0 3 
C 0.795609 3 1.55874 2.683901 2.12132 2.12132 
C 2.683901 1.55874 3 0.795609 3 0 
C 3 -0.795609 2.683901 -1.55874 2.12132 -2.12132 
C 1.55874 -2.683901 0.795609 -3 0 -3 
C -0.795609 -3 -1.55874 -2.683901 -2.12132 -2.12132 
C -2.683901 -1.55874 -3 -0.795609 -3 0 
C -3 0.795609 -2.683901 1.55874 -2.12132 2.12132 
C -1.55874 2.683901 -0.795609 3 0 3 
z
" id="m4e8f746c76" style="stroke:#ff7f0e;"/>
    </defs>
    <g clip-path="url(#pea2462b33e)">
     <use style="fill:#ff7f0e;stroke:#ff7f0e;" x="141.95547" xlink:href="#m4e8f746c76" y="241.463124"/>
     <use style="fill:#ff7f0e;stroke:#ff7f0e;" x="255.696098" xlink:href="#m4e8f746c76" y="71.542472"/>
     <use style="fill:#ff7f0e;stroke:#ff7f0e;" x="258.660992" xlink:href="#m4e8f746c76" y="93.030827"/>
     <use style="fill:#ff7f0e;stroke:#ff7f0e;" x="242.277911" xlink:href="#m4e8f746c76" y="247.181883"/>
     <use style="fill:#ff7f0e;stroke:#ff7f0e;" x="303.951967" xlink:href="#m4e8f746c76" y="77.29251"/>
     <use style="fill:#ff7f0e;stroke:#ff7f0e;" x="366.347212" xlink:href="#m4e8f746c76" y="46.457086"/>
     <use style="fill:#ff7f0e;stroke:#ff7f0e;" x="369.364986" xlink:href="#m4e8f746c76" y="53.78669"/>
     <use style="fill:#ff7f0e;stroke:#ff7f0e;" x="357.238406" xlink:href="#m4e8f746c76" y="75.650387"/>
     <use style="fill:#ff7f0e;stroke:#ff7f0e;" x="164.361309" xlink:href="#m4e8f746c76" y="135.981471"/>
     <use style="fill:#ff7f0e;stroke:#ff7f0e;" x="364.974627" xlink:href="#m4e8f746c76" y="55.809368"/>
     <use style="fill:#ff7f0e;stroke:#ff7f0e;" x="166.585167" xlink:href="#m4e8f746c76" y="174.214269"/>
     <use style="fill:#ff7f0e;stroke:#ff7f0e;" x="227.974754" xlink:href="#m4e8f746c76" y="128.203542"/>
     <use style="fill:#ff7f0e;stroke:#ff7f0e;" x="269.953869" xlink:href="#m4e8f746c76" y="79.732236"/>
     <use style="fill:#ff7f0e;stroke:#ff7f0e;" x="302.911365" xlink:href="#m4e8f746c76" y="205.492806"/>
     <use style="fill:#ff7f0e;stroke:#ff7f0e;" x="282.341132" xlink:href="#m4e8f746c76" y="92.566862"/>
     <use style="fill:#ff7f0e;stroke:#ff7f0e;" x="292.660356" xlink:href="#m4e8f746c76" y="89.360812"/>
     <use style="fill:#ff7f0e;stroke:#ff7f0e;" x="155.939808" xlink:href="#m4e8f746c76" y="197.323895"/>
     <use style="fill:#ff7f0e;stroke:#ff7f0e;" x="90.462078" xlink:href="#m4e8f746c76" y="211.477433"/>
     <use style="fill:#ff7f0e;stroke:#ff7f0e;" x="177.485245" xlink:href="#m4e8f746c76" y="158.601066"/>
     <use style="fill:#ff7f0e;stroke:#ff7f0e;" x="188.518137" xlink:href="#m4e8f746c76" y="207.046307"/>
     <use style="fill:#ff7f0e;stroke:#ff7f0e;" x="369.699923" xlink:href="#m4e8f746c76" y="49.491104"/>
     <use style="fill:#ff7f0e;stroke:#ff7f0e;" x="121.663693" xlink:href="#m4e8f746c76" y="236.703573"/>
     <use style="fill:#ff7f0e;stroke:#ff7f0e;" x="177.127406" xlink:href="#m4e8f746c76" y="205.894214"/>
     <use style="fill:#ff7f0e;stroke:#ff7f0e;" x="305.855014" xlink:href="#m4e8f746c76" y="60.438592"/>
     <use style="fill:#ff7f0e;stroke:#ff7f0e;" x="244.366983" xlink:href="#m4e8f746c76" y="89.590188"/>
     <use style="fill:#ff7f0e;stroke:#ff7f0e;" x="266.122517" xlink:href="#m4e8f746c76" y="89.96553"/>
     <use style="fill:#ff7f0e;stroke:#ff7f0e;" x="142.698192" xlink:href="#m4e8f746c76" y="130.299204"/>
     <use style="fill:#ff7f0e;stroke:#ff7f0e;" x="62.895418" xlink:href="#m4e8f746c76" y="227.731846"/>
     <use style="fill:#ff7f0e;stroke:#ff7f0e;" x="224.772525" xlink:href="#m4e8f746c76" y="181.543873"/>
     <use style="fill:#ff7f0e;stroke:#ff7f0e;" x="286.239804" xlink:href="#m4e8f746c76" y="59.244794"/>
     <use style="fill:#ff7f0e;stroke:#ff7f0e;" x="170.949031" xlink:href="#m4e8f746c76" y="218.004221"/>
     <use style="fill:#ff7f0e;stroke:#ff7f0e;" x="312.418472" xlink:href="#m4e8f746c76" y="75.061308"/>
     <use style="fill:#ff7f0e;stroke:#ff7f0e;" x="281.518577" xlink:href="#m4e8f746c76" y="61.898257"/>
     <use style="fill:#ff7f0e;stroke:#ff7f0e;" x="340.485003" xlink:href="#m4e8f746c76" y="71.214048"/>
     <use style="fill:#ff7f0e;stroke:#ff7f0e;" x="367.869701" xlink:href="#m4e8f746c76" y="61.590684"/>
     <use style="fill:#ff7f0e;stroke:#ff7f0e;" x="189.750863" xlink:href="#m4e8f746c76" y="184.312024"/>
     <use style="fill:#ff7f0e;stroke:#ff7f0e;" x="256.625857" xlink:href="#m4e8f746c76" y="93.374891"/>
     <use style="fill:#ff7f0e;stroke:#ff7f0e;" x="264.913268" xlink:href="#m4e8f746c76" y="78.991977"/>
     <use style="fill:#ff7f0e;stroke:#ff7f0e;" x="251.805502" xlink:href="#m4e8f746c76" y="98.051032"/>
     <use style="fill:#ff7f0e;stroke:#ff7f0e;" x="253.443843" xlink:href="#m4e8f746c76" y="95.235964"/>
     <use style="fill:#ff7f0e;stroke:#ff7f0e;" x="300.794146" xlink:href="#m4e8f746c76" y="201.056467"/>
     <use style="fill:#ff7f0e;stroke:#ff7f0e;" x="115.618813" xlink:href="#m4e8f746c76" y="167.374696"/>
     <use style="fill:#ff7f0e;stroke:#ff7f0e;" x="120.292715" xlink:href="#m4e8f746c76" y="193.924961"/>
     <use style="fill:#ff7f0e;stroke:#ff7f0e;" x="364.060957" xlink:href="#m4e8f746c76" y="56.476644"/>
     <use style="fill:#ff7f0e;stroke:#ff7f0e;" x="358.646341" xlink:href="#m4e8f746c76" y="49.470251"/>
     <use style="fill:#ff7f0e;stroke:#ff7f0e;" x="306.021318" xlink:href="#m4e8f746c76" y="174.177778"/>
     <use style="fill:#ff7f0e;stroke:#ff7f0e;" x="125.69816" xlink:href="#m4e8f746c76" y="160.034666"/>
     <use style="fill:#ff7f0e;stroke:#ff7f0e;" x="362.064485" xlink:href="#m4e8f746c76" y="55.991826"/>
     <use style="fill:#ff7f0e;stroke:#ff7f0e;" x="161.413813" xlink:href="#m4e8f746c76" y="157.042353"/>
     <use style="fill:#ff7f0e;stroke:#ff7f0e;" x="352.278647" xlink:href="#m4e8f746c76" y="55.590419"/>
     <use style="fill:#ff7f0e;stroke:#ff7f0e;" x="247.183503" xlink:href="#m4e8f746c76" y="103.675956"/>
     <use style="fill:#ff7f0e;stroke:#ff7f0e;" x="139.858902" xlink:href="#m4e8f746c76" y="177.972907"/>
     <use style="fill:#ff7f0e;stroke:#ff7f0e;" x="109.204424" xlink:href="#m4e8f746c76" y="228.117614"/>
     <use style="fill:#ff7f0e;stroke:#ff7f0e;" x="155.138443" xlink:href="#m4e8f746c76" y="152.381851"/>
     <use style="fill:#ff7f0e;stroke:#ff7f0e;" x="223.295831" xlink:href="#m4e8f746c76" y="103.993954"/>
     <use style="fill:#ff7f0e;stroke:#ff7f0e;" x="375.341936" xlink:href="#m4e8f746c76" y="41.38475"/>
     <use style="fill:#ff7f0e;stroke:#ff7f0e;" x="325.544669" xlink:href="#m4e8f746c76" y="87.624853"/>
     <use style="fill:#ff7f0e;stroke:#ff7f0e;" x="369.459519" xlink:href="#m4e8f746c76" y="43.735853"/>
     <use style="fill:#ff7f0e;stroke:#ff7f0e;" x="200.038093" xlink:href="#m4e8f746c76" y="132.665946"/>
     <use style="fill:#ff7f0e;stroke:#ff7f0e;" x="223.159456" xlink:href="#m4e8f746c76" y="101.637638"/>
     <use style="fill:#ff7f0e;stroke:#ff7f0e;" x="297.888051" xlink:href="#m4e8f746c76" y="100.000728"/>
     <use style="fill:#ff7f0e;stroke:#ff7f0e;" x="237.845699" xlink:href="#m4e8f746c76" y="159.528996"/>
     <use style="fill:#ff7f0e;stroke:#ff7f0e;" x="376.83111" xlink:href="#m4e8f746c76" y="58.707846"/>
     <use style="fill:#ff7f0e;stroke:#ff7f0e;" x="347.495324" xlink:href="#m4e8f746c76" y="49.0115"/>
     <use style="fill:#ff7f0e;stroke:#ff7f0e;" x="354.592891" xlink:href="#m4e8f746c76" y="50.048904"/>
     <use style="fill:#ff7f0e;stroke:#ff7f0e;" x="268.884635" xlink:href="#m4e8f746c76" y="91.644145"/>
     <use style="fill:#ff7f0e;stroke:#ff7f0e;" x="361.05004" xlink:href="#m4e8f746c76" y="39.325579"/>
     <use style="fill:#ff7f0e;stroke:#ff7f0e;" x="238.523428" xlink:href="#m4e8f746c76" y="91.810964"/>
     <use style="fill:#ff7f0e;stroke:#ff7f0e;" x="167.537193" xlink:href="#m4e8f746c76" y="187.862138"/>
     <use style="fill:#ff7f0e;stroke:#ff7f0e;" x="172.887639" xlink:href="#m4e8f746c76" y="119.117127"/>
     <use style="fill:#ff7f0e;stroke:#ff7f0e;" x="341.888505" xlink:href="#m4e8f746c76" y="60.073675"/>
     <use style="fill:#ff7f0e;stroke:#ff7f0e;" x="386.337201" xlink:href="#m4e8f746c76" y="65.469223"/>
     <use style="fill:#ff7f0e;stroke:#ff7f0e;" x="291.351874" xlink:href="#m4e8f746c76" y="94.636459"/>
     <use style="fill:#ff7f0e;stroke:#ff7f0e;" x="171.942792" xlink:href="#m4e8f746c76" y="247.906502"/>
     <use style="fill:#ff7f0e;stroke:#ff7f0e;" x="88.141959" xlink:href="#m4e8f746c76" y="231.818908"/>
     <use style="fill:#ff7f0e;stroke:#ff7f0e;" x="300.291906" xlink:href="#m4e8f746c76" y="84.424016"/>
     <use style="fill:#ff7f0e;stroke:#ff7f0e;" x="146.333059" xlink:href="#m4e8f746c76" y="160.060731"/>
     <use style="fill:#ff7f0e;stroke:#ff7f0e;" x="126.24767" xlink:href="#m4e8f746c76" y="218.134548"/>
     <use style="fill:#ff7f0e;stroke:#ff7f0e;" x="302.316676" xlink:href="#m4e8f746c76" y="82.917434"/>
     <use style="fill:#ff7f0e;stroke:#ff7f0e;" x="146.201062" xlink:href="#m4e8f746c76" y="186.001065"/>
     <use style="fill:#ff7f0e;stroke:#ff7f0e;" x="180.685119" xlink:href="#m4e8f746c76" y="135.449736"/>
     <use style="fill:#ff7f0e;stroke:#ff7f0e;" x="294.267407" xlink:href="#m4e8f746c76" y="90.424282"/>
     <use style="fill:#ff7f0e;stroke:#ff7f0e;" x="299.873274" xlink:href="#m4e8f746c76" y="72.731057"/>
     <use style="fill:#ff7f0e;stroke:#ff7f0e;" x="214.707492" xlink:href="#m4e8f746c76" y="121.692393"/>
     <use style="fill:#ff7f0e;stroke:#ff7f0e;" x="283.633757" xlink:href="#m4e8f746c76" y="81.34308"/>
     <use style="fill:#ff7f0e;stroke:#ff7f0e;" x="227.942436" xlink:href="#m4e8f746c76" y="98.95811"/>
     <use style="fill:#ff7f0e;stroke:#ff7f0e;" x="131.366827" xlink:href="#m4e8f746c76" y="250.565178"/>
     <use style="fill:#ff7f0e;stroke:#ff7f0e;" x="139.948703" xlink:href="#m4e8f746c76" y="146.371159"/>
     <use style="fill:#ff7f0e;stroke:#ff7f0e;" x="242.459107" xlink:href="#m4e8f746c76" y="194.138697"/>
     <use style="fill:#ff7f0e;stroke:#ff7f0e;" x="149.079235" xlink:href="#m4e8f746c76" y="137.425497"/>
     <use style="fill:#ff7f0e;stroke:#ff7f0e;" x="370.524149" xlink:href="#m4e8f746c76" y="54.135967"/>
     <use style="fill:#ff7f0e;stroke:#ff7f0e;" x="346.655504" xlink:href="#m4e8f746c76" y="51.831781"/>
     <use style="fill:#ff7f0e;stroke:#ff7f0e;" x="207.236851" xlink:href="#m4e8f746c76" y="89.9134"/>
     <use style="fill:#ff7f0e;stroke:#ff7f0e;" x="113.452996" xlink:href="#m4e8f746c76" y="173.48965"/>
     <use style="fill:#ff7f0e;stroke:#ff7f0e;" x="187.645402" xlink:href="#m4e8f746c76" y="225.662249"/>
     <use style="fill:#ff7f0e;stroke:#ff7f0e;" x="389.007707" xlink:href="#m4e8f746c76" y="51.873486"/>
     <use style="fill:#ff7f0e;stroke:#ff7f0e;" x="339.043049" xlink:href="#m4e8f746c76" y="75.624321"/>
     <use style="fill:#ff7f0e;stroke:#ff7f0e;" x="203.865617" xlink:href="#m4e8f746c76" y="128.573671"/>
     <use style="fill:#ff7f0e;stroke:#ff7f0e;" x="287.301906" xlink:href="#m4e8f746c76" y="76.16127"/>
     <use style="fill:#ff7f0e;stroke:#ff7f0e;" x="233.500575" xlink:href="#m4e8f746c76" y="95.892813"/>
     <use style="fill:#ff7f0e;stroke:#ff7f0e;" x="269.636975" xlink:href="#m4e8f746c76" y="97.618346"/>
     <use style="fill:#ff7f0e;stroke:#ff7f0e;" x="216.604324" xlink:href="#m4e8f746c76" y="96.226451"/>
     <use style="fill:#ff7f0e;stroke:#ff7f0e;" x="315.652368" xlink:href="#m4e8f746c76" y="76.025729"/>
     <use style="fill:#ff7f0e;stroke:#ff7f0e;" x="333.729332" xlink:href="#m4e8f746c76" y="62.810547"/>
     <use style="fill:#ff7f0e;stroke:#ff7f0e;" x="329.996392" xlink:href="#m4e8f746c76" y="59.432465"/>
     <use style="fill:#ff7f0e;stroke:#ff7f0e;" x="271.818044" xlink:href="#m4e8f746c76" y="71.443424"/>
     <use style="fill:#ff7f0e;stroke:#ff7f0e;" x="293.408377" xlink:href="#m4e8f746c76" y="92.118536"/>
     <use style="fill:#ff7f0e;stroke:#ff7f0e;" x="134.308182" xlink:href="#m4e8f746c76" y="228.878726"/>
     <use style="fill:#ff7f0e;stroke:#ff7f0e;" x="173.099448" xlink:href="#m4e8f746c76" y="128.339082"/>
     <use style="fill:#ff7f0e;stroke:#ff7f0e;" x="337.149387" xlink:href="#m4e8f746c76" y="90.549396"/>
     <use style="fill:#ff7f0e;stroke:#ff7f0e;" x="177.437238" xlink:href="#m4e8f746c76" y="141.194561"/>
     <use style="fill:#ff7f0e;stroke:#ff7f0e;" x="287.156386" xlink:href="#m4e8f746c76" y="84.163362"/>
     <use style="fill:#ff7f0e;stroke:#ff7f0e;" x="134.268224" xlink:href="#m4e8f746c76" y="248.031616"/>
     <use style="fill:#ff7f0e;stroke:#ff7f0e;" x="386.118859" xlink:href="#m4e8f746c76" y="53.041218"/>
     <use style="fill:#ff7f0e;stroke:#ff7f0e;" x="327.841859" xlink:href="#m4e8f746c76" y="80.71751"/>
     <use style="fill:#ff7f0e;stroke:#ff7f0e;" x="348.096618" xlink:href="#m4e8f746c76" y="63.707199"/>
     <use style="fill:#ff7f0e;stroke:#ff7f0e;" x="138.746461" xlink:href="#m4e8f746c76" y="218.885233"/>
     <use style="fill:#ff7f0e;stroke:#ff7f0e;" x="283.740878" xlink:href="#m4e8f746c76" y="212.733787"/>
     <use style="fill:#ff7f0e;stroke:#ff7f0e;" x="355.14424" xlink:href="#m4e8f746c76" y="47.989734"/>
     <use style="fill:#ff7f0e;stroke:#ff7f0e;" x="230.365467" xlink:href="#m4e8f746c76" y="92.535584"/>
     <use style="fill:#ff7f0e;stroke:#ff7f0e;" x="203.779747" xlink:href="#m4e8f746c76" y="164.684742"/>
     <use style="fill:#ff7f0e;stroke:#ff7f0e;" x="238.440077" xlink:href="#m4e8f746c76" y="263.436296"/>
     <use style="fill:#ff7f0e;stroke:#ff7f0e;" x="365.286119" xlink:href="#m4e8f746c76" y="48.28688"/>
     <use style="fill:#ff7f0e;stroke:#ff7f0e;" x="371.724554" xlink:href="#m4e8f746c76" y="44.027786"/>
     <use style="fill:#ff7f0e;stroke:#ff7f0e;" x="233.676964" xlink:href="#m4e8f746c76" y="83.428316"/>
     <use style="fill:#ff7f0e;stroke:#ff7f0e;" x="354.91935" xlink:href="#m4e8f746c76" y="61.236194"/>
     <use style="fill:#ff7f0e;stroke:#ff7f0e;" x="150.002319" xlink:href="#m4e8f746c76" y="196.166589"/>
     <use style="fill:#ff7f0e;stroke:#ff7f0e;" x="270.05605" xlink:href="#m4e8f746c76" y="101.814883"/>
     <use style="fill:#ff7f0e;stroke:#ff7f0e;" x="135.741711" xlink:href="#m4e8f746c76" y="165.393722"/>
     <use style="fill:#ff7f0e;stroke:#ff7f0e;" x="325.543148" xlink:href="#m4e8f746c76" y="105.969715"/>
     <use style="fill:#ff7f0e;stroke:#ff7f0e;" x="266.893464" xlink:href="#m4e8f746c76" y="84.575196"/>
     <use style="fill:#ff7f0e;stroke:#ff7f0e;" x="277.974964" xlink:href="#m4e8f746c76" y="95.762486"/>
     <use style="fill:#ff7f0e;stroke:#ff7f0e;" x="147.028687" xlink:href="#m4e8f746c76" y="201.249351"/>
     <use style="fill:#ff7f0e;stroke:#ff7f0e;" x="364.05371" xlink:href="#m4e8f746c76" y="55.892778"/>
     <use style="fill:#ff7f0e;stroke:#ff7f0e;" x="380.257697" xlink:href="#m4e8f746c76" y="62.059863"/>
     <use style="fill:#ff7f0e;stroke:#ff7f0e;" x="292.250437" xlink:href="#m4e8f746c76" y="71.745783"/>
     <use style="fill:#ff7f0e;stroke:#ff7f0e;" x="296.849522" xlink:href="#m4e8f746c76" y="85.4927"/>
     <use style="fill:#ff7f0e;stroke:#ff7f0e;" x="199.764534" xlink:href="#m4e8f746c76" y="82.875729"/>
     <use style="fill:#ff7f0e;stroke:#ff7f0e;" x="213.259063" xlink:href="#m4e8f746c76" y="87.186954"/>
     <use style="fill:#ff7f0e;stroke:#ff7f0e;" x="195.475975" xlink:href="#m4e8f746c76" y="143.092125"/>
     <use style="fill:#ff7f0e;stroke:#ff7f0e;" x="158.681389" xlink:href="#m4e8f746c76" y="248.990825"/>
     <use style="fill:#ff7f0e;stroke:#ff7f0e;" x="96.011669" xlink:href="#m4e8f746c76" y="243.240787"/>
    </g>
   </g>
   <g id="matplotlib.axis_1">
    <g id="xtick_1">
     <g id="line2d_1">
      <defs>
       <path d="M 0 0 
L 0 3.5 
" id="m140746d898" style="stroke:#000000;stroke-width:0.8;"/>
      </defs>
      <g>
       <use style="stroke:#000000;stroke-width:0.8;" x="143.576222" xlink:href="#m140746d898" y="276.84375"/>
      </g>
     </g>
     <g id="text_1">
      <!-- $\mathdefault{10^{3}}$ -->
      <defs>
       <path d="M 12.40625 8.296875 
L 28.515625 8.296875 
L 28.515625 63.921875 
L 10.984375 60.40625 
L 10.984375 69.390625 
L 28.421875 72.90625 
L 38.28125 72.90625 
L 38.28125 8.296875 
L 54.390625 8.296875 
L 54.390625 0 
L 12.40625 0 
z
" id="DejaVuSans-31"/>
       <path d="M 31.78125 66.40625 
Q 24.171875 66.40625 20.328125 58.90625 
Q 16.5 51.421875 16.5 36.375 
Q 16.5 21.390625 20.328125 13.890625 
Q 24.171875 6.390625 31.78125 6.390625 
Q 39.453125 6.390625 43.28125 13.890625 
Q 47.125 21.390625 47.125 36.375 
Q 47.125 51.421875 43.28125 58.90625 
Q 39.453125 66.40625 31.78125 66.40625 
z
M 31.78125 74.21875 
Q 44.046875 74.21875 50.515625 64.515625 
Q 56.984375 54.828125 56.984375 36.375 
Q 56.984375 17.96875 50.515625 8.265625 
Q 44.046875 -1.421875 31.78125 -1.421875 
Q 19.53125 -1.421875 13.0625 8.265625 
Q 6.59375 17.96875 6.59375 36.375 
Q 6.59375 54.828125 13.0625 64.515625 
Q 19.53125 74.21875 31.78125 74.21875 
z
" id="DejaVuSans-30"/>
       <path d="M 40.578125 39.3125 
Q 47.65625 37.796875 51.625 33 
Q 55.609375 28.21875 55.609375 21.1875 
Q 55.609375 10.40625 48.1875 4.484375 
Q 40.765625 -1.421875 27.09375 -1.421875 
Q 22.515625 -1.421875 17.65625 -0.515625 
Q 12.796875 0.390625 7.625 2.203125 
L 7.625 11.71875 
Q 11.71875 9.328125 16.59375 8.109375 
Q 21.484375 6.890625 26.8125 6.890625 
Q 36.078125 6.890625 40.9375 10.546875 
Q 45.796875 14.203125 45.796875 21.1875 
Q 45.796875 27.640625 41.28125 31.265625 
Q 36.765625 34.90625 28.71875 34.90625 
L 20.21875 34.90625 
L 20.21875 43.015625 
L 29.109375 43.015625 
Q 36.375 43.015625 40.234375 45.921875 
Q 44.09375 48.828125 44.09375 54.296875 
Q 44.09375 59.90625 40.109375 62.90625 
Q 36.140625 65.921875 28.71875 65.921875 
Q 24.65625 65.921875 20.015625 65.03125 
Q 15.375 64.15625 9.8125 62.3125 
L 9.8125 71.09375 
Q 15.4375 72.65625 20.34375 73.4375 
Q 25.25 74.21875 29.59375 74.21875 
Q 40.828125 74.21875 47.359375 69.109375 
Q 53.90625 64.015625 53.90625 55.328125 
Q 53.90625 49.265625 50.4375 45.09375 
Q 46.96875 40.921875 40.578125 39.3125 
z
" id="DejaVuSans-33"/>
      </defs>
      <g transform="translate(134.776222 291.442188)scale(0.1 -0.1)">
       <use transform="translate(0 0.765625)" xlink:href="#DejaVuSans-31"/>
       <use transform="translate(63.623047 0.765625)" xlink:href="#DejaVuSans-30"/>
       <use transform="translate(128.203125 39.046875)scale(0.7)" xlink:href="#DejaVuSans-33"/>
      </g>
     </g>
    </g>
    <g id="xtick_2">
     <g id="line2d_2">
      <g>
       <use style="stroke:#000000;stroke-width:0.8;" x="288.514612" xlink:href="#m140746d898" y="276.84375"/>
      </g>
     </g>
     <g id="text_2">
      <!-- $\mathdefault{10^{4}}$ -->
      <defs>
       <path d="M 37.796875 64.3125 
L 12.890625 25.390625 
L 37.796875 25.390625 
z
M 35.203125 72.90625 
L 47.609375 72.90625 
L 47.609375 25.390625 
L 58.015625 25.390625 
L 58.015625 17.1875 
L 47.609375 17.1875 
L 47.609375 0 
L 37.796875 0 
L 37.796875 17.1875 
L 4.890625 17.1875 
L 4.890625 26.703125 
z
" id="DejaVuSans-34"/>
      </defs>
      <g transform="translate(279.714612 291.442188)scale(0.1 -0.1)">
       <use transform="translate(0 0.684375)" xlink:href="#DejaVuSans-31"/>
       <use transform="translate(63.623047 0.684375)" xlink:href="#DejaVuSans-30"/>
       <use transform="translate(128.203125 38.965625)scale(0.7)" xlink:href="#DejaVuSans-34"/>
      </g>
     </g>
    </g>
    <g id="xtick_3">
     <g id="line2d_3">
      <defs>
       <path d="M 0 0 
L 0 2 
" id="mb374f8c81f" style="stroke:#000000;stroke-width:0.6;"/>
      </defs>
      <g>
       <use style="stroke:#000000;stroke-width:0.6;" x="67.791019" xlink:href="#mb374f8c81f" y="276.84375"/>
      </g>
     </g>
    </g>
    <g id="xtick_4">
     <g id="line2d_4">
      <g>
       <use style="stroke:#000000;stroke-width:0.6;" x="85.899438" xlink:href="#mb374f8c81f" y="276.84375"/>
      </g>
     </g>
    </g>
    <g id="xtick_5">
     <g id="line2d_5">
      <g>
       <use style="stroke:#000000;stroke-width:0.6;" x="99.945419" xlink:href="#mb374f8c81f" y="276.84375"/>
      </g>
     </g>
    </g>
    <g id="xtick_6">
     <g id="line2d_6">
      <g>
       <use style="stroke:#000000;stroke-width:0.6;" x="111.421822" xlink:href="#mb374f8c81f" y="276.84375"/>
      </g>
     </g>
    </g>
    <g id="xtick_7">
     <g id="line2d_7">
      <g>
       <use style="stroke:#000000;stroke-width:0.6;" x="121.124982" xlink:href="#mb374f8c81f" y="276.84375"/>
      </g>
     </g>
    </g>
    <g id="xtick_8">
     <g id="line2d_8">
      <g>
       <use style="stroke:#000000;stroke-width:0.6;" x="129.530241" xlink:href="#mb374f8c81f" y="276.84375"/>
      </g>
     </g>
    </g>
    <g id="xtick_9">
     <g id="line2d_9">
      <g>
       <use style="stroke:#000000;stroke-width:0.6;" x="136.944205" xlink:href="#mb374f8c81f" y="276.84375"/>
      </g>
     </g>
    </g>
    <g id="xtick_10">
     <g id="line2d_10">
      <g>
       <use style="stroke:#000000;stroke-width:0.6;" x="187.207025" xlink:href="#mb374f8c81f" y="276.84375"/>
      </g>
     </g>
    </g>
    <g id="xtick_11">
     <g id="line2d_11">
      <g>
       <use style="stroke:#000000;stroke-width:0.6;" x="212.729409" xlink:href="#mb374f8c81f" y="276.84375"/>
      </g>
     </g>
    </g>
    <g id="xtick_12">
     <g id="line2d_12">
      <g>
       <use style="stroke:#000000;stroke-width:0.6;" x="230.837828" xlink:href="#mb374f8c81f" y="276.84375"/>
      </g>
     </g>
    </g>
    <g id="xtick_13">
     <g id="line2d_13">
      <g>
       <use style="stroke:#000000;stroke-width:0.6;" x="244.883809" xlink:href="#mb374f8c81f" y="276.84375"/>
      </g>
     </g>
    </g>
    <g id="xtick_14">
     <g id="line2d_14">
      <g>
       <use style="stroke:#000000;stroke-width:0.6;" x="256.360212" xlink:href="#mb374f8c81f" y="276.84375"/>
      </g>
     </g>
    </g>
    <g id="xtick_15">
     <g id="line2d_15">
      <g>
       <use style="stroke:#000000;stroke-width:0.6;" x="266.063371" xlink:href="#mb374f8c81f" y="276.84375"/>
      </g>
     </g>
    </g>
    <g id="xtick_16">
     <g id="line2d_16">
      <g>
       <use style="stroke:#000000;stroke-width:0.6;" x="274.468631" xlink:href="#mb374f8c81f" y="276.84375"/>
      </g>
     </g>
    </g>
    <g id="xtick_17">
     <g id="line2d_17">
      <g>
       <use style="stroke:#000000;stroke-width:0.6;" x="281.882595" xlink:href="#mb374f8c81f" y="276.84375"/>
      </g>
     </g>
    </g>
    <g id="xtick_18">
     <g id="line2d_18">
      <g>
       <use style="stroke:#000000;stroke-width:0.6;" x="332.145415" xlink:href="#mb374f8c81f" y="276.84375"/>
      </g>
     </g>
    </g>
    <g id="xtick_19">
     <g id="line2d_19">
      <g>
       <use style="stroke:#000000;stroke-width:0.6;" x="357.667799" xlink:href="#mb374f8c81f" y="276.84375"/>
      </g>
     </g>
    </g>
    <g id="xtick_20">
     <g id="line2d_20">
      <g>
       <use style="stroke:#000000;stroke-width:0.6;" x="375.776218" xlink:href="#mb374f8c81f" y="276.84375"/>
      </g>
     </g>
    </g>
    <g id="xtick_21">
     <g id="line2d_21">
      <g>
       <use style="stroke:#000000;stroke-width:0.6;" x="389.822199" xlink:href="#mb374f8c81f" y="276.84375"/>
      </g>
     </g>
    </g>
    <g id="xtick_22">
     <g id="line2d_22">
      <g>
       <use style="stroke:#000000;stroke-width:0.6;" x="401.298602" xlink:href="#mb374f8c81f" y="276.84375"/>
      </g>
     </g>
    </g>
    <g id="text_3">
     <!-- GDP per Capita [in USD] -->
     <defs>
      <path d="M 59.515625 10.40625 
L 59.515625 29.984375 
L 43.40625 29.984375 
L 43.40625 38.09375 
L 69.28125 38.09375 
L 69.28125 6.78125 
Q 63.578125 2.734375 56.6875 0.65625 
Q 49.8125 -1.421875 42 -1.421875 
Q 24.90625 -1.421875 15.25 8.5625 
Q 5.609375 18.5625 5.609375 36.375 
Q 5.609375 54.25 15.25 64.234375 
Q 24.90625 74.21875 42 74.21875 
Q 49.125 74.21875 55.546875 72.453125 
Q 61.96875 70.703125 67.390625 67.28125 
L 67.390625 56.78125 
Q 61.921875 61.421875 55.765625 63.765625 
Q 49.609375 66.109375 42.828125 66.109375 
Q 29.4375 66.109375 22.71875 58.640625 
Q 16.015625 51.171875 16.015625 36.375 
Q 16.015625 21.625 22.71875 14.15625 
Q 29.4375 6.6875 42.828125 6.6875 
Q 48.046875 6.6875 52.140625 7.59375 
Q 56.25 8.5 59.515625 10.40625 
z
" id="DejaVuSans-47"/>
      <path d="M 19.671875 64.796875 
L 19.671875 8.109375 
L 31.59375 8.109375 
Q 46.6875 8.109375 53.6875 14.9375 
Q 60.6875 21.78125 60.6875 36.53125 
Q 60.6875 51.171875 53.6875 57.984375 
Q 46.6875 64.796875 31.59375 64.796875 
z
M 9.8125 72.90625 
L 30.078125 72.90625 
Q 51.265625 72.90625 61.171875 64.09375 
Q 71.09375 55.28125 71.09375 36.53125 
Q 71.09375 17.671875 61.125 8.828125 
Q 51.171875 0 30.078125 0 
L 9.8125 0 
z
" id="DejaVuSans-44"/>
      <path d="M 19.671875 64.796875 
L 19.671875 37.40625 
L 32.078125 37.40625 
Q 38.96875 37.40625 42.71875 40.96875 
Q 46.484375 44.53125 46.484375 51.125 
Q 46.484375 57.671875 42.71875 61.234375 
Q 38.96875 64.796875 32.078125 64.796875 
z
M 9.8125 72.90625 
L 32.078125 72.90625 
Q 44.34375 72.90625 50.609375 67.359375 
Q 56.890625 61.8125 56.890625 51.125 
Q 56.890625 40.328125 50.609375 34.8125 
Q 44.34375 29.296875 32.078125 29.296875 
L 19.671875 29.296875 
L 19.671875 0 
L 9.8125 0 
z
" id="DejaVuSans-50"/>
      <path id="DejaVuSans-20"/>
      <path d="M 18.109375 8.203125 
L 18.109375 -20.796875 
L 9.078125 -20.796875 
L 9.078125 54.6875 
L 18.109375 54.6875 
L 18.109375 46.390625 
Q 20.953125 51.265625 25.265625 53.625 
Q 29.59375 56 35.59375 56 
Q 45.5625 56 51.78125 48.09375 
Q 58.015625 40.1875 58.015625 27.296875 
Q 58.015625 14.40625 51.78125 6.484375 
Q 45.5625 -1.421875 35.59375 -1.421875 
Q 29.59375 -1.421875 25.265625 0.953125 
Q 20.953125 3.328125 18.109375 8.203125 
z
M 48.6875 27.296875 
Q 48.6875 37.203125 44.609375 42.84375 
Q 40.53125 48.484375 33.40625 48.484375 
Q 26.265625 48.484375 22.1875 42.84375 
Q 18.109375 37.203125 18.109375 27.296875 
Q 18.109375 17.390625 22.1875 11.75 
Q 26.265625 6.109375 33.40625 6.109375 
Q 40.53125 6.109375 44.609375 11.75 
Q 48.6875 17.390625 48.6875 27.296875 
z
" id="DejaVuSans-70"/>
      <path d="M 56.203125 29.59375 
L 56.203125 25.203125 
L 14.890625 25.203125 
Q 15.484375 15.921875 20.484375 11.0625 
Q 25.484375 6.203125 34.421875 6.203125 
Q 39.59375 6.203125 44.453125 7.46875 
Q 49.3125 8.734375 54.109375 11.28125 
L 54.109375 2.78125 
Q 49.265625 0.734375 44.1875 -0.34375 
Q 39.109375 -1.421875 33.890625 -1.421875 
Q 20.796875 -1.421875 13.15625 6.1875 
Q 5.515625 13.8125 5.515625 26.8125 
Q 5.515625 40.234375 12.765625 48.109375 
Q 20.015625 56 32.328125 56 
Q 43.359375 56 49.78125 48.890625 
Q 56.203125 41.796875 56.203125 29.59375 
z
M 47.21875 32.234375 
Q 47.125 39.59375 43.09375 43.984375 
Q 39.0625 48.390625 32.421875 48.390625 
Q 24.90625 48.390625 20.390625 44.140625 
Q 15.875 39.890625 15.1875 32.171875 
z
" id="DejaVuSans-65"/>
      <path d="M 41.109375 46.296875 
Q 39.59375 47.171875 37.8125 47.578125 
Q 36.03125 48 33.890625 48 
Q 26.265625 48 22.1875 43.046875 
Q 18.109375 38.09375 18.109375 28.8125 
L 18.109375 0 
L 9.078125 0 
L 9.078125 54.6875 
L 18.109375 54.6875 
L 18.109375 46.1875 
Q 20.953125 51.171875 25.484375 53.578125 
Q 30.03125 56 36.53125 56 
Q 37.453125 56 38.578125 55.875 
Q 39.703125 55.765625 41.0625 55.515625 
z
" id="DejaVuSans-72"/>
      <path d="M 64.40625 67.28125 
L 64.40625 56.890625 
Q 59.421875 61.53125 53.78125 63.8125 
Q 48.140625 66.109375 41.796875 66.109375 
Q 29.296875 66.109375 22.65625 58.46875 
Q 16.015625 50.828125 16.015625 36.375 
Q 16.015625 21.96875 22.65625 14.328125 
Q 29.296875 6.6875 41.796875 6.6875 
Q 48.140625 6.6875 53.78125 8.984375 
Q 59.421875 11.28125 64.40625 15.921875 
L 64.40625 5.609375 
Q 59.234375 2.09375 53.4375 0.328125 
Q 47.65625 -1.421875 41.21875 -1.421875 
Q 24.65625 -1.421875 15.125 8.703125 
Q 5.609375 18.84375 5.609375 36.375 
Q 5.609375 53.953125 15.125 64.078125 
Q 24.65625 74.21875 41.21875 74.21875 
Q 47.75 74.21875 53.53125 72.484375 
Q 59.328125 70.75 64.40625 67.28125 
z
" id="DejaVuSans-43"/>
      <path d="M 34.28125 27.484375 
Q 23.390625 27.484375 19.1875 25 
Q 14.984375 22.515625 14.984375 16.5 
Q 14.984375 11.71875 18.140625 8.90625 
Q 21.296875 6.109375 26.703125 6.109375 
Q 34.1875 6.109375 38.703125 11.40625 
Q 43.21875 16.703125 43.21875 25.484375 
L 43.21875 27.484375 
z
M 52.203125 31.203125 
L 52.203125 0 
L 43.21875 0 
L 43.21875 8.296875 
Q 40.140625 3.328125 35.546875 0.953125 
Q 30.953125 -1.421875 24.3125 -1.421875 
Q 15.921875 -1.421875 10.953125 3.296875 
Q 6 8.015625 6 15.921875 
Q 6 25.140625 12.171875 29.828125 
Q 18.359375 34.515625 30.609375 34.515625 
L 43.21875 34.515625 
L 43.21875 35.40625 
Q 43.21875 41.609375 39.140625 45 
Q 35.0625 48.390625 27.6875 48.390625 
Q 23 48.390625 18.546875 47.265625 
Q 14.109375 46.140625 10.015625 43.890625 
L 10.015625 52.203125 
Q 14.9375 54.109375 19.578125 55.046875 
Q 24.21875 56 28.609375 56 
Q 40.484375 56 46.34375 49.84375 
Q 52.203125 43.703125 52.203125 31.203125 
z
" id="DejaVuSans-61"/>
      <path d="M 9.421875 54.6875 
L 18.40625 54.6875 
L 18.40625 0 
L 9.421875 0 
z
M 9.421875 75.984375 
L 18.40625 75.984375 
L 18.40625 64.59375 
L 9.421875 64.59375 
z
" id="DejaVuSans-69"/>
      <path d="M 18.3125 70.21875 
L 18.3125 54.6875 
L 36.8125 54.6875 
L 36.8125 47.703125 
L 18.3125 47.703125 
L 18.3125 18.015625 
Q 18.3125 11.328125 20.140625 9.421875 
Q 21.96875 7.515625 27.59375 7.515625 
L 36.8125 7.515625 
L 36.8125 0 
L 27.59375 0 
Q 17.1875 0 13.234375 3.875 
Q 9.28125 7.765625 9.28125 18.015625 
L 9.28125 47.703125 
L 2.6875 47.703125 
L 2.6875 54.6875 
L 9.28125 54.6875 
L 9.28125 70.21875 
z
" id="DejaVuSans-74"/>
      <path d="M 8.59375 75.984375 
L 29.296875 75.984375 
L 29.296875 69 
L 17.578125 69 
L 17.578125 -6.203125 
L 29.296875 -6.203125 
L 29.296875 -13.1875 
L 8.59375 -13.1875 
z
" id="DejaVuSans-5b"/>
      <path d="M 54.890625 33.015625 
L 54.890625 0 
L 45.90625 0 
L 45.90625 32.71875 
Q 45.90625 40.484375 42.875 44.328125 
Q 39.84375 48.1875 33.796875 48.1875 
Q 26.515625 48.1875 22.3125 43.546875 
Q 18.109375 38.921875 18.109375 30.90625 
L 18.109375 0 
L 9.078125 0 
L 9.078125 54.6875 
L 18.109375 54.6875 
L 18.109375 46.1875 
Q 21.34375 51.125 25.703125 53.5625 
Q 30.078125 56 35.796875 56 
Q 45.21875 56 50.046875 50.171875 
Q 54.890625 44.34375 54.890625 33.015625 
z
" id="DejaVuSans-6e"/>
      <path d="M 8.6875 72.90625 
L 18.609375 72.90625 
L 18.609375 28.609375 
Q 18.609375 16.890625 22.84375 11.734375 
Q 27.09375 6.59375 36.625 6.59375 
Q 46.09375 6.59375 50.34375 11.734375 
Q 54.59375 16.890625 54.59375 28.609375 
L 54.59375 72.90625 
L 64.5 72.90625 
L 64.5 27.390625 
Q 64.5 13.140625 57.4375 5.859375 
Q 50.390625 -1.421875 36.625 -1.421875 
Q 22.796875 -1.421875 15.734375 5.859375 
Q 8.6875 13.140625 8.6875 27.390625 
z
" id="DejaVuSans-55"/>
      <path d="M 53.515625 70.515625 
L 53.515625 60.890625 
Q 47.90625 63.578125 42.921875 64.890625 
Q 37.9375 66.21875 33.296875 66.21875 
Q 25.25 66.21875 20.875 63.09375 
Q 16.5 59.96875 16.5 54.203125 
Q 16.5 49.359375 19.40625 46.890625 
Q 22.3125 44.4375 30.421875 42.921875 
L 36.375 41.703125 
Q 47.40625 39.59375 52.65625 34.296875 
Q 57.90625 29 57.90625 20.125 
Q 57.90625 9.515625 50.796875 4.046875 
Q 43.703125 -1.421875 29.984375 -1.421875 
Q 24.8125 -1.421875 18.96875 -0.25 
Q 13.140625 0.921875 6.890625 3.21875 
L 6.890625 13.375 
Q 12.890625 10.015625 18.65625 8.296875 
Q 24.421875 6.59375 29.984375 6.59375 
Q 38.421875 6.59375 43.015625 9.90625 
Q 47.609375 13.234375 47.609375 19.390625 
Q 47.609375 24.75 44.3125 27.78125 
Q 41.015625 30.8125 33.5 32.328125 
L 27.484375 33.5 
Q 16.453125 35.6875 11.515625 40.375 
Q 6.59375 45.0625 6.59375 53.421875 
Q 6.59375 63.09375 13.40625 68.65625 
Q 20.21875 74.21875 32.171875 74.21875 
Q 37.3125 74.21875 42.625 73.28125 
Q 47.953125 72.359375 53.515625 70.515625 
z
" id="DejaVuSans-53"/>
      <path d="M 30.421875 75.984375 
L 30.421875 -13.1875 
L 9.71875 -13.1875 
L 9.71875 -6.203125 
L 21.390625 -6.203125 
L 21.390625 69 
L 9.71875 69 
L 9.71875 75.984375 
z
" id="DejaVuSans-5d"/>
     </defs>
     <g transform="translate(165.264062 305.120313)scale(0.1 -0.1)">
      <use xlink:href="#DejaVuSans-47"/>
      <use x="77.490234" xlink:href="#DejaVuSans-44"/>
      <use x="154.492188" xlink:href="#DejaVuSans-50"/>
      <use x="214.794922" xlink:href="#DejaVuSans-20"/>
      <use x="246.582031" xlink:href="#DejaVuSans-70"/>
      <use x="310.058594" xlink:href="#DejaVuSans-65"/>
      <use x="371.582031" xlink:href="#DejaVuSans-72"/>
      <use x="412.695312" xlink:href="#DejaVuSans-20"/>
      <use x="444.482422" xlink:href="#DejaVuSans-43"/>
      <use x="514.306641" xlink:href="#DejaVuSans-61"/>
      <use x="575.585938" xlink:href="#DejaVuSans-70"/>
      <use x="639.0625" xlink:href="#DejaVuSans-69"/>
      <use x="666.845703" xlink:href="#DejaVuSans-74"/>
      <use x="706.054688" xlink:href="#DejaVuSans-61"/>
      <use x="767.333984" xlink:href="#DejaVuSans-20"/>
      <use x="799.121094" xlink:href="#DejaVuSans-5b"/>
      <use x="838.134766" xlink:href="#DejaVuSans-69"/>
      <use x="865.917969" xlink:href="#DejaVuSans-6e"/>
      <use x="929.296875" xlink:href="#DejaVuSans-20"/>
      <use x="961.083984" xlink:href="#DejaVuSans-55"/>
      <use x="1034.277344" xlink:href="#DejaVuSans-53"/>
      <use x="1097.753906" xlink:href="#DejaVuSans-44"/>
      <use x="1174.755859" xlink:href="#DejaVuSans-5d"/>
     </g>
    </g>
   </g>
   <g id="matplotlib.axis_2">
    <g id="ytick_1">
     <g id="line2d_23">
      <defs>
       <path d="M 0 0 
L -3.5 0 
" id="m5fa704c5fa" style="stroke:#000000;stroke-width:0.8;"/>
      </defs>
      <g>
       <use style="stroke:#000000;stroke-width:0.8;" x="44.203125" xlink:href="#m5fa704c5fa" y="261.41883"/>
      </g>
     </g>
     <g id="text_4">
      <!-- 40 -->
      <g transform="translate(24.478125 265.218049)scale(0.1 -0.1)">
       <use xlink:href="#DejaVuSans-34"/>
       <use x="63.623047" xlink:href="#DejaVuSans-30"/>
      </g>
     </g>
    </g>
    <g id="ytick_2">
     <g id="line2d_24">
      <g>
       <use style="stroke:#000000;stroke-width:0.8;" x="44.203125" xlink:href="#m5fa704c5fa" y="209.287935"/>
      </g>
     </g>
     <g id="text_5">
      <!-- 50 -->
      <defs>
       <path d="M 10.796875 72.90625 
L 49.515625 72.90625 
L 49.515625 64.59375 
L 19.828125 64.59375 
L 19.828125 46.734375 
Q 21.96875 47.46875 24.109375 47.828125 
Q 26.265625 48.1875 28.421875 48.1875 
Q 40.625 48.1875 47.75 41.5 
Q 54.890625 34.8125 54.890625 23.390625 
Q 54.890625 11.625 47.5625 5.09375 
Q 40.234375 -1.421875 26.90625 -1.421875 
Q 22.3125 -1.421875 17.546875 -0.640625 
Q 12.796875 0.140625 7.71875 1.703125 
L 7.71875 11.625 
Q 12.109375 9.234375 16.796875 8.0625 
Q 21.484375 6.890625 26.703125 6.890625 
Q 35.15625 6.890625 40.078125 11.328125 
Q 45.015625 15.765625 45.015625 23.390625 
Q 45.015625 31 40.078125 35.4375 
Q 35.15625 39.890625 26.703125 39.890625 
Q 22.75 39.890625 18.8125 39.015625 
Q 14.890625 38.140625 10.796875 36.28125 
z
" id="DejaVuSans-35"/>
      </defs>
      <g transform="translate(24.478125 213.087154)scale(0.1 -0.1)">
       <use xlink:href="#DejaVuSans-35"/>
       <use x="63.623047" xlink:href="#DejaVuSans-30"/>
      </g>
     </g>
    </g>
    <g id="ytick_3">
     <g id="line2d_25">
      <g>
       <use style="stroke:#000000;stroke-width:0.8;" x="44.203125" xlink:href="#m5fa704c5fa" y="157.157041"/>
      </g>
     </g>
     <g id="text_6">
      <!-- 60 -->
      <defs>
       <path d="M 33.015625 40.375 
Q 26.375 40.375 22.484375 35.828125 
Q 18.609375 31.296875 18.609375 23.390625 
Q 18.609375 15.53125 22.484375 10.953125 
Q 26.375 6.390625 33.015625 6.390625 
Q 39.65625 6.390625 43.53125 10.953125 
Q 47.40625 15.53125 47.40625 23.390625 
Q 47.40625 31.296875 43.53125 35.828125 
Q 39.65625 40.375 33.015625 40.375 
z
M 52.59375 71.296875 
L 52.59375 62.3125 
Q 48.875 64.0625 45.09375 64.984375 
Q 41.3125 65.921875 37.59375 65.921875 
Q 27.828125 65.921875 22.671875 59.328125 
Q 17.53125 52.734375 16.796875 39.40625 
Q 19.671875 43.65625 24.015625 45.921875 
Q 28.375 48.1875 33.59375 48.1875 
Q 44.578125 48.1875 50.953125 41.515625 
Q 57.328125 34.859375 57.328125 23.390625 
Q 57.328125 12.15625 50.6875 5.359375 
Q 44.046875 -1.421875 33.015625 -1.421875 
Q 20.359375 -1.421875 13.671875 8.265625 
Q 6.984375 17.96875 6.984375 36.375 
Q 6.984375 53.65625 15.1875 63.9375 
Q 23.390625 74.21875 37.203125 74.21875 
Q 40.921875 74.21875 44.703125 73.484375 
Q 48.484375 72.75 52.59375 71.296875 
z
" id="DejaVuSans-36"/>
      </defs>
      <g transform="translate(24.478125 160.956259)scale(0.1 -0.1)">
       <use xlink:href="#DejaVuSans-36"/>
       <use x="63.623047" xlink:href="#DejaVuSans-30"/>
      </g>
     </g>
    </g>
    <g id="ytick_4">
     <g id="line2d_26">
      <g>
       <use style="stroke:#000000;stroke-width:0.8;" x="44.203125" xlink:href="#m5fa704c5fa" y="105.026146"/>
      </g>
     </g>
     <g id="text_7">
      <!-- 70 -->
      <defs>
       <path d="M 8.203125 72.90625 
L 55.078125 72.90625 
L 55.078125 68.703125 
L 28.609375 0 
L 18.3125 0 
L 43.21875 64.59375 
L 8.203125 64.59375 
z
" id="DejaVuSans-37"/>
      </defs>
      <g transform="translate(24.478125 108.825365)scale(0.1 -0.1)">
       <use xlink:href="#DejaVuSans-37"/>
       <use x="63.623047" xlink:href="#DejaVuSans-30"/>
      </g>
     </g>
    </g>
    <g id="ytick_5">
     <g id="line2d_27">
      <g>
       <use style="stroke:#000000;stroke-width:0.8;" x="44.203125" xlink:href="#m5fa704c5fa" y="52.895251"/>
      </g>
     </g>
     <g id="text_8">
      <!-- 80 -->
      <defs>
       <path d="M 31.78125 34.625 
Q 24.75 34.625 20.71875 30.859375 
Q 16.703125 27.09375 16.703125 20.515625 
Q 16.703125 13.921875 20.71875 10.15625 
Q 24.75 6.390625 31.78125 6.390625 
Q 38.8125 6.390625 42.859375 10.171875 
Q 46.921875 13.96875 46.921875 20.515625 
Q 46.921875 27.09375 42.890625 30.859375 
Q 38.875 34.625 31.78125 34.625 
z
M 21.921875 38.8125 
Q 15.578125 40.375 12.03125 44.71875 
Q 8.5 49.078125 8.5 55.328125 
Q 8.5 64.0625 14.71875 69.140625 
Q 20.953125 74.21875 31.78125 74.21875 
Q 42.671875 74.21875 48.875 69.140625 
Q 55.078125 64.0625 55.078125 55.328125 
Q 55.078125 49.078125 51.53125 44.71875 
Q 48 40.375 41.703125 38.8125 
Q 48.828125 37.15625 52.796875 32.3125 
Q 56.78125 27.484375 56.78125 20.515625 
Q 56.78125 9.90625 50.3125 4.234375 
Q 43.84375 -1.421875 31.78125 -1.421875 
Q 19.734375 -1.421875 13.25 4.234375 
Q 6.78125 9.90625 6.78125 20.515625 
Q 6.78125 27.484375 10.78125 32.3125 
Q 14.796875 37.15625 21.921875 38.8125 
z
M 18.3125 54.390625 
Q 18.3125 48.734375 21.84375 45.5625 
Q 25.390625 42.390625 31.78125 42.390625 
Q 38.140625 42.390625 41.71875 45.5625 
Q 45.3125 48.734375 45.3125 54.390625 
Q 45.3125 60.0625 41.71875 63.234375 
Q 38.140625 66.40625 31.78125 66.40625 
Q 25.390625 66.40625 21.84375 63.234375 
Q 18.3125 60.0625 18.3125 54.390625 
z
" id="DejaVuSans-38"/>
      </defs>
      <g transform="translate(24.478125 56.69447)scale(0.1 -0.1)">
       <use xlink:href="#DejaVuSans-38"/>
       <use x="63.623047" xlink:href="#DejaVuSans-30"/>
      </g>
     </g>
    </g>
    <g id="text_9">
     <!-- Life Expectancy [in years] -->
     <defs>
      <path d="M 9.8125 72.90625 
L 19.671875 72.90625 
L 19.671875 8.296875 
L 55.171875 8.296875 
L 55.171875 0 
L 9.8125 0 
z
" id="DejaVuSans-4c"/>
      <path d="M 37.109375 75.984375 
L 37.109375 68.5 
L 28.515625 68.5 
Q 23.6875 68.5 21.796875 66.546875 
Q 19.921875 64.59375 19.921875 59.515625 
L 19.921875 54.6875 
L 34.71875 54.6875 
L 34.71875 47.703125 
L 19.921875 47.703125 
L 19.921875 0 
L 10.890625 0 
L 10.890625 47.703125 
L 2.296875 47.703125 
L 2.296875 54.6875 
L 10.890625 54.6875 
L 10.890625 58.5 
Q 10.890625 67.625 15.140625 71.796875 
Q 19.390625 75.984375 28.609375 75.984375 
z
" id="DejaVuSans-66"/>
      <path d="M 9.8125 72.90625 
L 55.90625 72.90625 
L 55.90625 64.59375 
L 19.671875 64.59375 
L 19.671875 43.015625 
L 54.390625 43.015625 
L 54.390625 34.71875 
L 19.671875 34.71875 
L 19.671875 8.296875 
L 56.78125 8.296875 
L 56.78125 0 
L 9.8125 0 
z
" id="DejaVuSans-45"/>
      <path d="M 54.890625 54.6875 
L 35.109375 28.078125 
L 55.90625 0 
L 45.3125 0 
L 29.390625 21.484375 
L 13.484375 0 
L 2.875 0 
L 24.125 28.609375 
L 4.6875 54.6875 
L 15.28125 54.6875 
L 29.78125 35.203125 
L 44.28125 54.6875 
z
" id="DejaVuSans-78"/>
      <path d="M 48.78125 52.59375 
L 48.78125 44.1875 
Q 44.96875 46.296875 41.140625 47.34375 
Q 37.3125 48.390625 33.40625 48.390625 
Q 24.65625 48.390625 19.8125 42.84375 
Q 14.984375 37.3125 14.984375 27.296875 
Q 14.984375 17.28125 19.8125 11.734375 
Q 24.65625 6.203125 33.40625 6.203125 
Q 37.3125 6.203125 41.140625 7.25 
Q 44.96875 8.296875 48.78125 10.40625 
L 48.78125 2.09375 
Q 45.015625 0.34375 40.984375 -0.53125 
Q 36.96875 -1.421875 32.421875 -1.421875 
Q 20.0625 -1.421875 12.78125 6.34375 
Q 5.515625 14.109375 5.515625 27.296875 
Q 5.515625 40.671875 12.859375 48.328125 
Q 20.21875 56 33.015625 56 
Q 37.15625 56 41.109375 55.140625 
Q 45.0625 54.296875 48.78125 52.59375 
z
" id="DejaVuSans-63"/>
      <path d="M 32.171875 -5.078125 
Q 28.375 -14.84375 24.75 -17.8125 
Q 21.140625 -20.796875 15.09375 -20.796875 
L 7.90625 -20.796875 
L 7.90625 -13.28125 
L 13.1875 -13.28125 
Q 16.890625 -13.28125 18.9375 -11.515625 
Q 21 -9.765625 23.484375 -3.21875 
L 25.09375 0.875 
L 2.984375 54.6875 
L 12.5 54.6875 
L 29.59375 11.921875 
L 46.6875 54.6875 
L 56.203125 54.6875 
z
" id="DejaVuSans-79"/>
      <path d="M 44.28125 53.078125 
L 44.28125 44.578125 
Q 40.484375 46.53125 36.375 47.5 
Q 32.28125 48.484375 27.875 48.484375 
Q 21.1875 48.484375 17.84375 46.4375 
Q 14.5 44.390625 14.5 40.28125 
Q 14.5 37.15625 16.890625 35.375 
Q 19.28125 33.59375 26.515625 31.984375 
L 29.59375 31.296875 
Q 39.15625 29.25 43.1875 25.515625 
Q 47.21875 21.78125 47.21875 15.09375 
Q 47.21875 7.46875 41.1875 3.015625 
Q 35.15625 -1.421875 24.609375 -1.421875 
Q 20.21875 -1.421875 15.453125 -0.5625 
Q 10.6875 0.296875 5.421875 2 
L 5.421875 11.28125 
Q 10.40625 8.6875 15.234375 7.390625 
Q 20.0625 6.109375 24.8125 6.109375 
Q 31.15625 6.109375 34.5625 8.28125 
Q 37.984375 10.453125 37.984375 14.40625 
Q 37.984375 18.0625 35.515625 20.015625 
Q 33.0625 21.96875 24.703125 23.78125 
L 21.578125 24.515625 
Q 13.234375 26.265625 9.515625 29.90625 
Q 5.8125 33.546875 5.8125 39.890625 
Q 5.8125 47.609375 11.28125 51.796875 
Q 16.75 56 26.8125 56 
Q 31.78125 56 36.171875 55.265625 
Q 40.578125 54.546875 44.28125 53.078125 
z
" id="DejaVuSans-73"/>
     </defs>
     <g transform="translate(18.398438 216.399688)rotate(-90)scale(0.1 -0.1)">
      <use xlink:href="#DejaVuSans-4c"/>
      <use x="55.712891" xlink:href="#DejaVuSans-69"/>
      <use x="83.496094" xlink:href="#DejaVuSans-66"/>
      <use x="118.701172" xlink:href="#DejaVuSans-65"/>
      <use x="180.224609" xlink:href="#DejaVuSans-20"/>
      <use x="212.011719" xlink:href="#DejaVuSans-45"/>
      <use x="275.195312" xlink:href="#DejaVuSans-78"/>
      <use x="334.375" xlink:href="#DejaVuSans-70"/>
      <use x="397.851562" xlink:href="#DejaVuSans-65"/>
      <use x="459.375" xlink:href="#DejaVuSans-63"/>
      <use x="514.355469" xlink:href="#DejaVuSans-74"/>
      <use x="553.564453" xlink:href="#DejaVuSans-61"/>
      <use x="614.84375" xlink:href="#DejaVuSans-6e"/>
      <use x="678.222656" xlink:href="#DejaVuSans-63"/>
      <use x="733.203125" xlink:href="#DejaVuSans-79"/>
      <use x="792.382812" xlink:href="#DejaVuSans-20"/>
      <use x="824.169922" xlink:href="#DejaVuSans-5b"/>
      <use x="863.183594" xlink:href="#DejaVuSans-69"/>
      <use x="890.966797" xlink:href="#DejaVuSans-6e"/>
      <use x="954.345703" xlink:href="#DejaVuSans-20"/>
      <use x="986.132812" xlink:href="#DejaVuSans-79"/>
      <use x="1045.3125" xlink:href="#DejaVuSans-65"/>
      <use x="1106.835938" xlink:href="#DejaVuSans-61"/>
      <use x="1168.115234" xlink:href="#DejaVuSans-72"/>
      <use x="1209.228516" xlink:href="#DejaVuSans-73"/>
      <use x="1261.328125" xlink:href="#DejaVuSans-5d"/>
     </g>
    </g>
   </g>
   <g id="patch_3">
    <path d="M 44.203125 276.84375 
L 44.203125 25.918125 
" style="fill:none;stroke:#000000;stroke-linecap:square;stroke-linejoin:miter;stroke-width:0.8;"/>
   </g>
   <g id="patch_4">
    <path d="M 407.7 276.84375 
L 407.7 25.918125 
" style="fill:none;stroke:#000000;stroke-linecap:square;stroke-linejoin:miter;stroke-width:0.8;"/>
   </g>
   <g id="patch_5">
    <path d="M 44.203125 276.84375 
L 407.7 276.84375 
" style="fill:none;stroke:#000000;stroke-linecap:square;stroke-linejoin:miter;stroke-width:0.8;"/>
   </g>
   <g id="patch_6">
    <path d="M 44.203125 25.918125 
L 407.7 25.918125 
" style="fill:none;stroke:#000000;stroke-linecap:square;stroke-linejoin:miter;stroke-width:0.8;"/>
   </g>
   <g id="text_10">
    <!-- World Development in 2007 -->
    <defs>
     <path d="M 3.328125 72.90625 
L 13.28125 72.90625 
L 28.609375 11.28125 
L 43.890625 72.90625 
L 54.984375 72.90625 
L 70.3125 11.28125 
L 85.59375 72.90625 
L 95.609375 72.90625 
L 77.296875 0 
L 64.890625 0 
L 49.515625 63.28125 
L 33.984375 0 
L 21.578125 0 
z
" id="DejaVuSans-57"/>
     <path d="M 30.609375 48.390625 
Q 23.390625 48.390625 19.1875 42.75 
Q 14.984375 37.109375 14.984375 27.296875 
Q 14.984375 17.484375 19.15625 11.84375 
Q 23.34375 6.203125 30.609375 6.203125 
Q 37.796875 6.203125 41.984375 11.859375 
Q 46.1875 17.53125 46.1875 27.296875 
Q 46.1875 37.015625 41.984375 42.703125 
Q 37.796875 48.390625 30.609375 48.390625 
z
M 30.609375 56 
Q 42.328125 56 49.015625 48.375 
Q 55.71875 40.765625 55.71875 27.296875 
Q 55.71875 13.875 49.015625 6.21875 
Q 42.328125 -1.421875 30.609375 -1.421875 
Q 18.84375 -1.421875 12.171875 6.21875 
Q 5.515625 13.875 5.515625 27.296875 
Q 5.515625 40.765625 12.171875 48.375 
Q 18.84375 56 30.609375 56 
z
" id="DejaVuSans-6f"/>
     <path d="M 9.421875 75.984375 
L 18.40625 75.984375 
L 18.40625 0 
L 9.421875 0 
z
" id="DejaVuSans-6c"/>
     <path d="M 45.40625 46.390625 
L 45.40625 75.984375 
L 54.390625 75.984375 
L 54.390625 0 
L 45.40625 0 
L 45.40625 8.203125 
Q 42.578125 3.328125 38.25 0.953125 
Q 33.9375 -1.421875 27.875 -1.421875 
Q 17.96875 -1.421875 11.734375 6.484375 
Q 5.515625 14.40625 5.515625 27.296875 
Q 5.515625 40.1875 11.734375 48.09375 
Q 17.96875 56 27.875 56 
Q 33.9375 56 38.25 53.625 
Q 42.578125 51.265625 45.40625 46.390625 
z
M 14.796875 27.296875 
Q 14.796875 17.390625 18.875 11.75 
Q 22.953125 6.109375 30.078125 6.109375 
Q 37.203125 6.109375 41.296875 11.75 
Q 45.40625 17.390625 45.40625 27.296875 
Q 45.40625 37.203125 41.296875 42.84375 
Q 37.203125 48.484375 30.078125 48.484375 
Q 22.953125 48.484375 18.875 42.84375 
Q 14.796875 37.203125 14.796875 27.296875 
z
" id="DejaVuSans-64"/>
     <path d="M 2.984375 54.6875 
L 12.5 54.6875 
L 29.59375 8.796875 
L 46.6875 54.6875 
L 56.203125 54.6875 
L 35.6875 0 
L 23.484375 0 
z
" id="DejaVuSans-76"/>
     <path d="M 52 44.1875 
Q 55.375 50.25 60.0625 53.125 
Q 64.75 56 71.09375 56 
Q 79.640625 56 84.28125 50.015625 
Q 88.921875 44.046875 88.921875 33.015625 
L 88.921875 0 
L 79.890625 0 
L 79.890625 32.71875 
Q 79.890625 40.578125 77.09375 44.375 
Q 74.3125 48.1875 68.609375 48.1875 
Q 61.625 48.1875 57.5625 43.546875 
Q 53.515625 38.921875 53.515625 30.90625 
L 53.515625 0 
L 44.484375 0 
L 44.484375 32.71875 
Q 44.484375 40.625 41.703125 44.40625 
Q 38.921875 48.1875 33.109375 48.1875 
Q 26.21875 48.1875 22.15625 43.53125 
Q 18.109375 38.875 18.109375 30.90625 
L 18.109375 0 
L 9.078125 0 
L 9.078125 54.6875 
L 18.109375 54.6875 
L 18.109375 46.1875 
Q 21.1875 51.21875 25.484375 53.609375 
Q 29.78125 56 35.6875 56 
Q 41.65625 56 45.828125 52.96875 
Q 50 49.953125 52 44.1875 
z
" id="DejaVuSans-6d"/>
     <path d="M 19.1875 8.296875 
L 53.609375 8.296875 
L 53.609375 0 
L 7.328125 0 
L 7.328125 8.296875 
Q 12.9375 14.109375 22.625 23.890625 
Q 32.328125 33.6875 34.8125 36.53125 
Q 39.546875 41.84375 41.421875 45.53125 
Q 43.3125 49.21875 43.3125 52.78125 
Q 43.3125 58.59375 39.234375 62.25 
Q 35.15625 65.921875 28.609375 65.921875 
Q 23.96875 65.921875 18.8125 64.3125 
Q 13.671875 62.703125 7.8125 59.421875 
L 7.8125 69.390625 
Q 13.765625 71.78125 18.9375 73 
Q 24.125 74.21875 28.421875 74.21875 
Q 39.75 74.21875 46.484375 68.546875 
Q 53.21875 62.890625 53.21875 53.421875 
Q 53.21875 48.921875 51.53125 44.890625 
Q 49.859375 40.875 45.40625 35.40625 
Q 44.1875 33.984375 37.640625 27.21875 
Q 31.109375 20.453125 19.1875 8.296875 
z
" id="DejaVuSans-32"/>
    </defs>
    <g transform="translate(141.556875 19.918125)scale(0.12 -0.12)">
     <use xlink:href="#DejaVuSans-57"/>
     <use x="98.798828" xlink:href="#DejaVuSans-6f"/>
     <use x="159.980469" xlink:href="#DejaVuSans-72"/>
     <use x="201.09375" xlink:href="#DejaVuSans-6c"/>
     <use x="228.876953" xlink:href="#DejaVuSans-64"/>
     <use x="292.353516" xlink:href="#DejaVuSans-20"/>
     <use x="324.140625" xlink:href="#DejaVuSans-44"/>
     <use x="401.142578" xlink:href="#DejaVuSans-65"/>
     <use x="462.666016" xlink:href="#DejaVuSans-76"/>
     <use x="521.845703" xlink:href="#DejaVuSans-65"/>
     <use x="583.369141" xlink:href="#DejaVuSans-6c"/>
     <use x="611.152344" xlink:href="#DejaVuSans-6f"/>
     <use x="672.333984" xlink:href="#DejaVuSans-70"/>
     <use x="735.810547" xlink:href="#DejaVuSans-6d"/>
     <use x="833.222656" xlink:href="#DejaVuSans-65"/>
     <use x="894.746094" xlink:href="#DejaVuSans-6e"/>
     <use x="958.125" xlink:href="#DejaVuSans-74"/>
     <use x="997.333984" xlink:href="#DejaVuSans-20"/>
     <use x="1029.121094" xlink:href="#DejaVuSans-69"/>
     <use x="1056.904297" xlink:href="#DejaVuSans-6e"/>
     <use x="1120.283203" xlink:href="#DejaVuSans-20"/>
     <use x="1152.070312" xlink:href="#DejaVuSans-32"/>
     <use x="1215.693359" xlink:href="#DejaVuSans-30"/>
     <use x="1279.316406" xlink:href="#DejaVuSans-30"/>
     <use x="1342.939453" xlink:href="#DejaVuSans-37"/>
    </g>
   </g>
  </g>
 </g>
 <defs>
  <clipPath id="pea2462b33e">
   <rect height="250.925625" width="363.496875" x="44.203125" y="25.918125"/>
  </clipPath>
 </defs>
</svg>
